<svg width="56" height="56" viewBox="0 0 56 56" fill="none" xmlns="http://www.w3.org/2000/svg">
<path d="M28 56C43.464 56 56 43.464 56 28C56 12.536 43.464 0 28 0C12.536 0 0 12.536 0 28C0 43.464 12.536 56 28 56Z" fill="#4C31C6"/>
<path fill-rule="evenodd" clip-rule="evenodd" d="M35.2978 21.3845C33.2235 21.3209 25.9115 21.3429 24.9626 21.346C24.8962 21.3463 24.8332 21.3237 24.782 21.2815C22.6593 19.5292 22.6017 19.4716 16.514 13.3864C15.6574 12.5301 13.2099 9.13923 13.1823 13.0307L13.6105 57.584C13.6105 57.584 14.136 58.8538 9.17852 53.8995C9.12078 53.8418 9.0365 53.8194 8.95725 53.839C7.25873 54.2603 7.18711 57.9545 10.9403 58.5792C10.9518 58.5801 11.9602 58.5815 13.9655 58.5834L29.2199 69.7167C29.3777 69.7159 29.506 69.5891 29.5103 69.4314C29.5401 68.3428 29.6658 67.6885 27.9382 66.3834C27.8652 66.3283 27.8209 55.0424 27.8205 54.9509C27.8164 54.0444 27.795 49.1579 27.7896 47.9091C27.7888 47.7487 27.918 47.6194 28.0784 47.6202C28.7746 47.6236 30.6259 47.6269 32.5554 47.5805C32.8252 47.574 32.9376 47.2319 32.7239 47.0664C31.543 46.1529 29.9417 43.3961 30.0325 41.9118C30.051 41.6086 30.4552 41.5248 30.5876 41.7981C30.6849 41.9984 30.7926 42.1974 30.9108 42.395C34.2479 47.9673 42.4796 47.7457 45.6059 42.0526C46.7775 39.9189 47.5829 36.9082 47.5829 32.6627C47.5829 32.6627 48.015 21.438 36.5119 21.4263C36.1291 21.4108 35.7253 21.3976 35.2978 21.3845Z" fill="white"/>
<path fill-rule="evenodd" clip-rule="evenodd" d="M36.494 21.4261C36.4937 23.5955 38.026 26.9997 39.3954 28.5601C41.4311 30.8795 44.554 32.0911 47.5828 32.6628C47.5828 32.6628 48.0158 21.4261 36.494 21.4261Z" fill="#C67FFC"/>
<path fill-rule="evenodd" clip-rule="evenodd" d="M26.57 29.2521C25.2164 29.2521 24.119 30.349 24.119 31.702C24.119 33.0551 25.2164 34.152 26.57 34.152C27.9236 34.152 29.0209 33.0551 29.0209 31.702C29.0209 30.349 27.9236 29.2521 26.57 29.2521Z" fill="#3B3542"/>
</svg>
